<svg xmlns="http://www.w3.org/2000/svg" xmlns:xlink="http://www.w3.org/1999/xlink" width="500" zoomAndPan="magnify" viewBox="0 0 375 374.999991" height="500" preserveAspectRatio="xMidYMid meet" version="1.0"><defs><g/></defs><rect x="-37.5" width="450" fill="#ffffff" y="-37.499999" height="449.999989" fill-opacity="1"/><rect x="-37.5" width="450" fill="#ff3a3a" y="-37.499999" height="449.999989" fill-opacity="1"/><g fill="#ffffff" fill-opacity="1"><g transform="translate(6.573477, 158.195547)"><g><path d="M 31.90625 -5.0625 C 36.300781 -5.269531 39.132812 -6.492188 40.40625 -8.734375 C 41.6875 -10.984375 42.328125 -14.460938 42.328125 -19.171875 L 42.328125 -23.921875 L 42.484375 -101.671875 L 26.6875 -101.53125 C 20.34375 -101.53125 15.816406 -99.40625 13.109375 -95.15625 C 10.398438 -90.914062 9.046875 -84.195312 9.046875 -75 L 3.375 -75 L 4.296875 -107.359375 L 93.703125 -107.359375 L 94.625 -75 L 88.796875 -75 C 88.691406 -81.4375 88.050781 -86.570312 86.875 -90.40625 C 85.695312 -94.238281 83.703125 -97.097656 80.890625 -98.984375 C 78.085938 -100.878906 74.078125 -101.828125 68.859375 -101.828125 L 55.828125 -101.828125 L 55.671875 -18.25 C 55.671875 -12.832031 55.515625 -8.796875 55.203125 -6.140625 L 67.9375 -6.75 L 67.9375 0 L 31.90625 0 Z M 31.90625 -5.0625 "/></g></g></g><g fill="#ffffff" fill-opacity="1"><g transform="translate(62.427387, 203.243672)"><g><path d="M 8.4375 -5.0625 C 12.007812 -5.164062 14.5625 -5.984375 16.09375 -7.515625 C 17.632812 -9.046875 18.503906 -10.859375 18.703125 -12.953125 C 18.910156 -15.054688 19.015625 -18.710938 19.015625 -23.921875 L 19.015625 -90.171875 C 19.015625 -94.460938 19.171875 -98.144531 19.484375 -101.21875 L 8.4375 -100.609375 L 8.4375 -107.359375 L 44.625 -107.5 C 63.84375 -107.601562 79.078125 -103.101562 90.328125 -94 C 101.578125 -84.90625 107.203125 -71.410156 107.203125 -53.515625 C 107.203125 -43.910156 104.953125 -35.015625 100.453125 -26.828125 C 95.953125 -18.648438 89.304688 -12.132812 80.515625 -7.28125 C 71.722656 -2.425781 61.140625 0 48.765625 0 L 8.4375 0 Z M 48.3125 -5.828125 C 56.894531 -5.828125 64.507812 -7.921875 71.15625 -12.109375 C 77.800781 -16.304688 82.960938 -22.082031 86.640625 -29.4375 C 90.328125 -36.800781 92.171875 -45.035156 92.171875 -54.140625 C 92.171875 -69.066406 88.078125 -80.742188 79.890625 -89.171875 C 71.710938 -97.609375 59.394531 -101.828125 42.9375 -101.828125 C 39.363281 -101.828125 36.804688 -101.109375 35.265625 -99.671875 C 33.734375 -98.242188 32.863281 -96.484375 32.65625 -94.390625 C 32.457031 -92.296875 32.359375 -88.640625 32.359375 -83.421875 L 32.359375 -18.09375 C 32.359375 -12.78125 32.207031 -8.796875 31.90625 -6.140625 C 35.476562 -5.929688 40.945312 -5.828125 48.3125 -5.828125 Z M 48.3125 -5.828125 "/></g></g></g><g fill="#ffffff" fill-opacity="1"><g transform="translate(157.409013, 256.252337)"><g><path d="M 57.65625 -17.640625 C 49.894531 -34.910156 43.863281 -48.53125 39.5625 -58.5 C 35.269531 -68.46875 31.078125 -78.972656 26.984375 -90.015625 L 26.84375 -83.28125 C 25.914062 -53.320312 25.351562 -31.953125 25.15625 -19.171875 C 25.15625 -17.640625 25.101562 -16.515625 25 -15.796875 C 25 -12.316406 24.84375 -9.097656 24.53125 -6.140625 L 36.046875 -6.75 L 36.046875 0 L 6.75 0 L 6.75 -5.0625 C 11.039062 -5.164062 13.820312 -6.363281 15.09375 -8.65625 C 16.375 -10.957031 17.117188 -14.460938 17.328125 -19.171875 L 20.703125 -101.21875 L 9.65625 -100.75 L 9.65625 -107.359375 L 33.125 -107.359375 L 53.984375 -59.203125 C 61.546875 -41.410156 67.375 -27.910156 71.46875 -18.703125 L 71.765625 -18.703125 C 72.992188 -21.773438 75.601562 -28.375 79.59375 -38.5 C 83.476562 -48.3125 87.925781 -59.097656 92.9375 -70.859375 C 98.757812 -84.554688 103.769531 -96.722656 107.96875 -107.359375 L 130.65625 -107.359375 L 130.65625 -102.296875 C 126.976562 -102.390625 124.269531 -101.390625 122.53125 -99.296875 C 120.789062 -97.203125 119.921875 -93.648438 119.921875 -88.640625 L 120.078125 -85.578125 L 124.0625 -15.796875 C 124.269531 -13.441406 124.375 -10.269531 124.375 -6.28125 L 135.5625 -6.75 L 135.5625 0 L 101.21875 0 L 101.21875 -5.0625 C 105.207031 -5.164062 107.914062 -6.316406 109.34375 -8.515625 C 110.78125 -10.710938 111.5 -14.160156 111.5 -18.859375 C 111.5 -20.804688 111.445312 -22.289062 111.34375 -23.3125 L 107.359375 -88.640625 C 107.148438 -88.128906 106.863281 -87.460938 106.5 -86.640625 C 106.144531 -85.828125 105.765625 -84.859375 105.359375 -83.734375 L 70.859375 1.53125 L 66.25 1.53125 Z M 57.65625 -17.640625 "/></g></g></g><g fill="#ffffff" fill-opacity="1"><g transform="translate(278.465729, 340.304978)"><g><path d="M 8.4375 -5.0625 C 12.007812 -5.164062 14.5625 -5.984375 16.09375 -7.515625 C 17.632812 -9.046875 18.503906 -10.859375 18.703125 -12.953125 C 18.910156 -15.054688 19.015625 -18.710938 19.015625 -23.921875 L 19.015625 -90.171875 C 19.015625 -94.460938 19.171875 -98.144531 19.484375 -101.21875 L 8.4375 -100.609375 L 8.4375 -107.359375 L 79.59375 -107.359375 L 80.359375 -80.515625 L 75.296875 -80.515625 C 75.296875 -88.898438 73.40625 -94.625 69.625 -97.6875 C 65.84375 -100.757812 60.679688 -102.191406 54.140625 -101.984375 L 42.9375 -101.671875 C 39.363281 -101.578125 36.832031 -100.757812 35.34375 -99.21875 C 33.863281 -97.6875 32.992188 -95.820312 32.734375 -93.625 C 32.484375 -91.425781 32.359375 -87.820312 32.359375 -82.8125 L 32.359375 -56.4375 L 59.046875 -56.28125 L 57.96875 -69.625 L 64.71875 -69.625 L 64.71875 -37.265625 L 59.8125 -37.265625 C 59.8125 -41.148438 59.375 -44.0625 58.5 -46 C 57.632812 -47.945312 56.28125 -49.273438 54.4375 -49.984375 C 52.601562 -50.703125 50.050781 -51.0625 46.78125 -51.0625 C 44.53125 -51.0625 42.789062 -51.015625 41.5625 -50.921875 L 32.359375 -50.453125 L 32.359375 -18.25 C 32.359375 -12.832031 32.207031 -8.796875 31.90625 -6.140625 L 47.546875 -6.75 L 47.546875 0 L 8.4375 0 Z M 8.4375 -5.0625 "/></g></g></g></svg>